<?xml version="1.0" encoding="iso-8859-1"?>
<!-- Generator: Adobe Illustrator 19.0.0, SVG Export Plug-In . SVG Version: 6.00 Build 0)  -->
<svg version="1.1" id="Capa_1" xmlns="http://www.w3.org/2000/svg" xmlns:xlink="http://www.w3.org/1999/xlink" x="0px" y="0px"
	 viewBox="0 0 512 512" style="enable-background:new 0 0 512 512;" xml:space="preserve">
<path style="fill:#91DC5A;" d="M497,0H15C6.716,0,0,6.716,0,15v482c0,8.284,6.716,15,15,15h482c8.284,0,15-6.716,15-15V15
	C512,6.716,505.284,0,497,0z"/>
<path style="fill:#4CBA68;" d="M497,0H255.999v512H497c8.284,0,15-6.716,15-15V15C512,6.716,505.284,0,497,0z"/>
<path style="fill:#DDFFFB;" d="M497,321.334H351.333V190.667H497c8.284,0,15-6.716,15-15s-6.716-15-15-15H351.333V15
	c0-8.284-6.716-15-15-15s-15,6.716-15,15v145.667h-15.779c-8.284,0-15,6.716-15,15s6.716,15,15,15h15.779v130.667H190.666V190.667
	h15.78c8.284,0,15-6.716,15-15s-6.716-15-15-15h-15.78V15c0-8.284-6.716-15-15-15s-15,6.716-15,15v145.667H15
	c-8.284,0-15,6.716-15,15s6.716,15,15,15h145.666v130.667H15c-8.284,0-15,6.716-15,15s6.716,15,15,15h145.666V497
	c0,8.284,6.716,15,15,15s15-6.716,15-15V351.334h130.667V497c0,8.284,6.716,15,15,15s15-6.716,15-15V351.334H497
	c8.284,0,15-6.716,15-15C512,328.05,505.284,321.334,497,321.334z"/>
<path style="fill:#9BFBFF;" d="M497,321.334H351.333V190.667H497c8.284,0,15-6.716,15-15s-6.716-15-15-15H351.333V15
	c0-8.284-6.716-15-15-15s-15,6.716-15,15v145.667h-15.779c-8.284,0-15,6.716-15,15s6.716,15,15,15h15.779v130.667h-65.334v30h65.334
	V497c0,8.284,6.716,15,15,15s15-6.716,15-15V351.334H497c8.284,0,15-6.716,15-15C512,328.05,505.284,321.334,497,321.334z"/>
<path style="fill:#FF73B0;" d="M256,0c-52.567,0-95.334,42.767-95.334,95.334c0,21.374,13.801,55.556,42.192,104.497
	c20.148,34.733,39.966,63.487,40.8,64.694C246.459,268.58,251.072,271,256,271c4.928,0,9.541-2.42,12.342-6.475
	c0.834-1.207,20.651-29.961,40.8-64.694c28.391-48.941,42.191-83.123,42.191-104.497C351.333,42.767,308.566,0,256,0z"/>
<path style="fill:#FD0F81;" d="M256,0h-0.001v271H256c4.928,0,9.541-2.42,12.342-6.475c0.834-1.207,20.651-29.961,40.8-64.694
	c28.391-48.941,42.191-83.123,42.191-104.497C351.333,42.767,308.566,0,256,0z"/>
<g>
</g>
<g>
</g>
<g>
</g>
<g>
</g>
<g>
</g>
<g>
</g>
<g>
</g>
<g>
</g>
<g>
</g>
<g>
</g>
<g>
</g>
<g>
</g>
<g>
</g>
<g>
</g>
<g>
</g>
</svg>
