<svg id="Capa_1" enable-background="new 0 0 64 64" height="512" viewBox="0 0 64 64" width="512" xmlns="http://www.w3.org/2000/svg" xmlns:xlink="http://www.w3.org/1999/xlink"><linearGradient id="lg1"><stop offset="0" stop-color="#048ac4"/><stop offset="1" stop-color="#35489b"/></linearGradient><linearGradient id="SVGID_1_" gradientTransform="matrix(1 0 0 -1 0 66)" gradientUnits="userSpaceOnUse" x1="-23.47" x2="72.316" xlink:href="#lg1" y1="34" y2="34"/><linearGradient id="SVGID_2_" gradientTransform="matrix(1 0 0 -1 0 66)" gradientUnits="userSpaceOnUse" x1="-16.346" x2="92.003" xlink:href="#lg1" y1="57.383" y2="17.538"/><linearGradient id="SVGID_3_" gradientTransform="matrix(1 0 0 -1 0 66)" gradientUnits="userSpaceOnUse" x1="-19.976" x2="88.374" xlink:href="#lg1" y1="47.512" y2="7.668"/><linearGradient id="lg2"><stop offset="0" stop-color="#f3f7ff"/><stop offset="1" stop-color="#cdd9ff"/></linearGradient><linearGradient id="SVGID_4_" gradientTransform="matrix(1 0 0 -1 0 66)" gradientUnits="userSpaceOnUse" x1="-14.162" x2="115.87" xlink:href="#lg2" y1="7" y2="7"/><linearGradient id="SVGID_5_" gradientTransform="matrix(1 0 0 -1 0 66)" gradientUnits="userSpaceOnUse" x1="-14.162" x2="115.87" xlink:href="#lg2" y1="61" y2="61"/><linearGradient id="SVGID_6_" gradientTransform="matrix(1 0 0 -1 0 66)" gradientUnits="userSpaceOnUse" x1="14.912" x2="25.863" xlink:href="#lg2" y1="78.279" y2="59.521"/><linearGradient id="SVGID_7_" gradientTransform="matrix(1 0 0 -1 0 66)" gradientUnits="userSpaceOnUse" x1="25.74" x2="36.692" xlink:href="#lg2" y1="86.103" y2="59.307"/><g id="Smartphone"><path d="m50 7.676h-36c-.609.065-1 .61-1 1.217v46.214c0 .607.391 1.152 1 1.217h36c.609-.065 1-.603 1-1.217v-46.214c0-.607-.391-1.152-1-1.217z" fill="url(#SVGID_1_)"/><path d="m13 44.756 37.064-37.064c-.022 0-.041-.016-.064-.016h-12.11l-24.89 24.89z" fill="url(#SVGID_2_)"/><path d="m14 56.323h8.01l28.99-28.99v-8.094l-37.068 37.068c.024.002.044.016.068.016z" fill="url(#SVGID_3_)"/><path d="m13 61c0 1.657 1.343 3 3 3h32c1.657 0 3-1.343 3-3v-7h-38z" fill="url(#SVGID_4_)"/><circle cx="32" cy="59" fill="#fff" r="3.226"/><path d="m48 0h-32c-1.657 0-3 1.343-3 3v7h38v-7c0-1.657-1.343-3-3-3z" fill="url(#SVGID_5_)"/><circle cx="25" cy="5" fill="url(#SVGID_6_)" r="1.5"/><path d="m41 6h-10c-.552 0-1-.448-1-1s.448-1 1-1h10c.552 0 1 .448 1 1s-.448 1-1 1z" fill="url(#SVGID_7_)"/></g></svg>